<svg width="216" height="216" viewBox="0 0 216 216" fill="none" xmlns="http://www.w3.org/2000/svg">
<g filter="url(#filter0_d_307_22)">
<path d="M27 26.0238C27 13.8604 36.8604 4 49.0238 4H189.976C202.14 4 212 13.8604 212 26.0238V166.976C212 179.14 202.14 189 189.976 189H49.0238C36.8604 189 27 179.14 27 166.976V26.0238Z" fill="white"/>
<path d="M27 26.0238C27 13.8604 36.8604 4 49.0238 4H189.976C202.14 4 212 13.8604 212 26.0238V166.976C212 179.14 202.14 189 189.976 189H49.0238C36.8604 189 27 179.14 27 166.976V26.0238Z" stroke="white" stroke-width="8"/>
</g>
<g filter="url(#filter1_d_307_22)">
<path d="M35 32C35 20.9543 43.9543 12 55 12H183C194.046 12 203 20.9543 203 32V160C203 171.046 194.046 180 183 180H55C43.9543 180 35 171.046 35 160V32Z" fill="white"/>
<path d="M35 32C35 20.9543 43.9543 12 55 12H183C194.046 12 203 20.9543 203 32V160C203 171.046 194.046 180 183 180H55C43.9543 180 35 171.046 35 160V32Z" stroke="black" stroke-width="8"/>
</g>
<path d="M68.8105 58.0996H84.2891L104.602 111.078V58.0996H117.297V131H101.916L81.5059 78.0215V131H68.8105V58.0996ZM120.357 58.002H143.844C152.014 58.002 158.118 59.5319 162.154 62.5918C166.223 65.6842 168.258 70.2904 168.258 76.4102C168.258 81.0326 167.053 84.6947 164.645 87.3965C162.203 90.0332 158.671 91.5632 154.049 91.9863C159.615 92.5072 163.814 94.3789 166.646 97.6016C169.446 100.792 170.846 105.268 170.846 111.029C170.846 118.028 168.73 123.106 164.498 126.264C160.266 129.421 153.382 131 143.844 131H120.357V58.002ZM143.844 86.4199C147.522 86.4199 150.126 85.7526 151.656 84.418C152.405 83.7669 152.975 82.9531 153.365 81.9766C153.756 80.9674 153.951 79.6491 153.951 78.0215C153.951 75.0918 153.17 72.9271 151.607 71.5273C150.924 70.9414 149.98 70.4531 148.775 70.0625C147.604 69.6719 145.96 69.4766 143.844 69.4766H134.273V86.4199H143.844ZM143.844 119.477C148.434 119.477 151.656 118.695 153.512 117.133C155.335 115.57 156.246 112.852 156.246 108.979C156.246 105.04 155.286 102.208 153.365 100.482C151.445 98.7572 148.271 97.8945 143.844 97.8945H134.273V119.477H143.844Z" fill="black"/>
<defs>
<filter id="filter0_d_307_22" x="0" y="0" width="216" height="216" filterUnits="userSpaceOnUse" color-interpolation-filters="sRGB">
<feFlood flood-opacity="0" result="BackgroundImageFix"/>
<feColorMatrix in="SourceAlpha" type="matrix" values="0 0 0 0 0 0 0 0 0 0 0 0 0 0 0 0 0 0 127 0" result="hardAlpha"/>
<feOffset dx="-23" dy="23"/>
<feComposite in2="hardAlpha" operator="out"/>
<feColorMatrix type="matrix" values="0 0 0 0 1 0 0 0 0 1 0 0 0 0 1 0 0 0 1 0"/>
<feBlend mode="normal" in2="BackgroundImageFix" result="effect1_dropShadow_307_22"/>
<feBlend mode="normal" in="SourceGraphic" in2="effect1_dropShadow_307_22" result="shape"/>
</filter>
<filter id="filter1_d_307_22" x="8" y="8" width="199" height="199" filterUnits="userSpaceOnUse" color-interpolation-filters="sRGB">
<feFlood flood-opacity="0" result="BackgroundImageFix"/>
<feColorMatrix in="SourceAlpha" type="matrix" values="0 0 0 0 0 0 0 0 0 0 0 0 0 0 0 0 0 0 127 0" result="hardAlpha"/>
<feOffset dx="-23" dy="23"/>
<feComposite in2="hardAlpha" operator="out"/>
<feColorMatrix type="matrix" values="0 0 0 0 0 0 0 0 0 0 0 0 0 0 0 0 0 0 1 0"/>
<feBlend mode="normal" in2="BackgroundImageFix" result="effect1_dropShadow_307_22"/>
<feBlend mode="normal" in="SourceGraphic" in2="effect1_dropShadow_307_22" result="shape"/>
</filter>
</defs>
</svg>
