<svg width="51" height="51" viewBox="0 0 51 51" fill="none" xmlns="http://www.w3.org/2000/svg">
<path d="M0 8.74151C0 3.91371 3.9137 0 8.7415 0H41.9585C46.7863 0 50.7 3.9137 50.7 8.7415V41.9585C50.7 46.7863 46.7863 50.7 41.9585 50.7H2.91384C1.30457 50.7 0 49.3954 0 47.7862V8.74151Z" fill="black"/>
<path d="M10.2378 36.9614V45.231H6.27064V30.9267H10.0516V33.4505H10.2192C10.5358 32.6185 11.0667 31.9604 11.8117 31.4762C12.5567 30.9857 13.46 30.7405 14.5217 30.7405C15.515 30.7405 16.3811 30.9578 17.1199 31.3924C17.8587 31.827 18.433 32.4478 18.8428 33.2549C19.2525 34.0558 19.4574 35.0119 19.4574 36.1232V45.231H15.4902V36.831C15.4964 35.9556 15.2729 35.2727 14.8197 34.7822C14.3665 34.2855 13.7425 34.0372 12.9478 34.0372C12.4139 34.0372 11.9421 34.152 11.5323 34.3817C11.1288 34.6115 10.8121 34.9467 10.5824 35.3875C10.3589 35.8221 10.244 36.3467 10.2378 36.9614ZM20.5607 45.231V26.1586H24.5279V33.3294H24.6489C24.8228 32.9445 25.0742 32.5534 25.4033 32.156C25.7385 31.7525 26.1731 31.4172 26.707 31.1502C27.2472 30.8771 27.9177 30.7405 28.7186 30.7405C29.7616 30.7405 30.7239 31.0137 31.6055 31.56C32.4871 32.1001 33.1918 32.9166 33.7195 34.0092C34.2472 35.0957 34.5111 36.4585 34.5111 38.0975C34.5111 39.6931 34.2534 41.0403 33.7381 42.1392C33.229 43.2319 32.5337 44.0607 31.6521 44.6257C30.7767 45.1845 29.7957 45.4638 28.7093 45.4638C27.9394 45.4638 27.2844 45.3366 26.7443 45.082C26.2104 44.8275 25.7727 44.5077 25.4312 44.1228C25.0897 43.7317 24.829 43.3374 24.6489 42.9401H24.472V45.231H20.5607ZM24.4441 38.0789C24.4441 38.9294 24.562 39.6713 24.7979 40.3046C25.0339 40.9379 25.3753 41.4314 25.8223 41.7853C26.2693 42.133 26.8126 42.3068 27.4521 42.3068C28.0977 42.3068 28.6441 42.1299 29.0911 41.776C29.5381 41.4159 29.8765 40.9192 30.1062 40.286C30.3421 39.6465 30.46 38.9108 30.46 38.0789C30.46 37.2532 30.3452 36.5268 30.1155 35.8997C29.8858 35.2727 29.5474 34.7822 29.1004 34.4283C28.6534 34.0744 28.1039 33.8975 27.4521 33.8975C26.8064 33.8975 26.26 34.0682 25.813 34.4097C25.3722 34.7511 25.0339 35.2354 24.7979 35.8625C24.562 36.4895 24.4441 37.2283 24.4441 38.0789Z" fill="white"/>
</svg>
